<svg width="60" height="60" viewBox="0 0 60 60" fill="none" xmlns="http://www.w3.org/2000/svg">
<g clip-path="url(#clip0_374_199)">
<path d="M30 60C46.5685 60 60 46.5685 60 30C60 13.4315 46.5685 0 30 0C13.4315 0 0 13.4315 0 30C0 46.5685 13.4315 60 30 60Z" fill="#D33410"/>
<path d="M18.4318 9.53257C18.4442 9.5511 18.446 9.56346 18.4371 9.56964C18.3074 9.6579 18.2377 9.75763 18.2271 9.86884C18.2165 9.98004 18.2659 10.116 18.3754 10.2766L20.0364 12.7187C20.0408 12.7249 20.0364 12.7346 20.0223 12.7487C20.009 12.762 19.9967 12.7681 19.987 12.7664L16.1 11.6349L16.0268 11.6172L17.4257 13.6745C17.5351 13.8352 17.6419 13.9305 17.7461 13.9614C17.8502 13.9923 17.9658 13.964 18.0929 13.8784C18.1018 13.8722 18.1132 13.8784 18.1256 13.897C18.1379 13.9155 18.1397 13.9279 18.1309 13.934C18.0532 13.987 17.9941 14.0249 17.9517 14.0488L17.7169 14.2015L17.4839 14.3665C17.4425 14.3992 17.3807 14.4433 17.2968 14.5006C17.2907 14.5051 17.2809 14.498 17.2686 14.4795C17.2562 14.4609 17.2527 14.4495 17.2589 14.445C17.3913 14.355 17.4628 14.2562 17.4707 14.1485C17.4786 14.0408 17.4283 13.9076 17.3198 13.7469L15.845 11.5775C15.649 11.5484 15.4893 11.5758 15.3657 11.6596C15.3569 11.6658 15.3454 11.6596 15.3331 11.6411C15.3207 11.6225 15.319 11.6102 15.3278 11.604L15.5025 11.4919C15.5414 11.4698 15.5934 11.4363 15.6588 11.3922C15.7267 11.3463 15.7814 11.3066 15.822 11.2739C15.8635 11.2413 15.8962 11.2165 15.9209 11.1998C15.9456 11.183 15.9668 11.1759 15.9853 11.1795C16.0038 11.183 16.0374 11.1945 16.0877 11.2148C16.1627 11.2448 16.2342 11.2713 16.303 11.2924L19.5783 12.2712L18.2703 10.3481C18.1609 10.1874 18.055 10.0904 17.9526 10.0559C17.8502 10.0215 17.7355 10.048 17.6093 10.1336C17.6031 10.138 17.5934 10.131 17.581 10.1124C17.5687 10.0939 17.5651 10.0824 17.5713 10.078L17.7549 9.95974C17.852 9.90326 17.9296 9.85471 17.9879 9.815C18.0435 9.77705 18.1185 9.72144 18.213 9.64819L18.4001 9.51404C18.4089 9.50786 18.4195 9.51404 18.4318 9.53257Z" fill="white"/>
<path d="M24.4382 10.6895C24.4462 10.7107 24.4435 10.724 24.4303 10.7292C24.3641 10.7557 24.2608 10.7928 24.1187 10.8413C23.9775 10.8899 23.8751 10.9261 23.8125 10.9517C23.7357 10.9817 23.6404 11.024 23.5247 11.0779C23.4162 11.1291 23.3323 11.1661 23.2741 11.19C23.26 11.1953 23.2494 11.1882 23.2405 11.167C23.2326 11.1458 23.2353 11.1326 23.2494 11.1273C23.3773 11.0761 23.4665 11.0267 23.5159 10.979C23.5653 10.9314 23.5786 10.8775 23.5547 10.8184C23.5353 10.7698 23.4833 10.7045 23.3976 10.6216L22.2909 9.58453L21.3068 9.9764L21.2821 11.2173C21.2803 11.355 21.2953 11.4618 21.3253 11.5377C21.4065 11.7425 21.6175 11.7769 21.9581 11.6418C21.9758 11.6348 21.9882 11.6418 21.997 11.663C22.0049 11.6842 22.0005 11.6974 21.9837 11.7045C21.9211 11.7292 21.8293 11.7619 21.7093 11.8016C21.5742 11.8475 21.4586 11.889 21.3615 11.9278C21.2715 11.964 21.1682 12.009 21.0535 12.0628C20.952 12.1114 20.8664 12.1493 20.7975 12.1767C20.7799 12.1837 20.7675 12.1767 20.7587 12.1555C20.7508 12.1343 20.7552 12.1211 20.772 12.114C20.869 12.0752 20.9441 12.024 20.9979 11.9605C21.0508 11.8969 21.0897 11.8069 21.1135 11.6913C21.1373 11.5748 21.1515 11.4159 21.155 11.2129L21.2212 8.1821C21.2238 8.16886 21.2344 8.15915 21.2512 8.15209C21.2688 8.14503 21.2812 8.14592 21.2883 8.15562L23.5477 10.2535C23.7683 10.4636 23.9378 10.596 24.0561 10.6516C24.1743 10.7072 24.2908 10.7116 24.4056 10.6666C24.4188 10.6613 24.4303 10.6692 24.4382 10.6895ZM21.3103 9.84842L22.1956 9.49627L21.3333 8.694L21.3103 9.84842Z" fill="white"/>
<path d="M24.3427 7.48027C24.2501 7.61972 24.205 7.83596 24.2086 8.12809C24.2103 8.13515 24.2006 8.14133 24.1803 8.14486C24.16 8.14839 24.1494 8.14751 24.1477 8.13957C24.1371 8.00453 24.1194 7.8289 24.0974 7.61266C24.0744 7.39643 24.0524 7.23491 24.0321 7.129C24.0285 7.11047 24.0365 7.09988 24.0568 7.09547C24.0771 7.09194 24.0885 7.099 24.0921 7.11753C24.108 7.19873 24.2148 7.21903 24.4125 7.18108C24.7267 7.13165 25.0965 7.06546 25.5219 6.98338C25.7381 6.94101 25.9667 6.89335 26.2076 6.83952L26.581 6.76185C26.7134 6.73625 26.8096 6.70801 26.8696 6.67712C26.9305 6.64623 26.964 6.6021 26.972 6.54297C26.9728 6.52796 26.9825 6.51825 27.0011 6.51472C27.0196 6.51119 27.0302 6.51649 27.0329 6.53149C27.0426 6.64005 27.0629 6.80333 27.0938 7.02221C27.1246 7.24109 27.1538 7.41761 27.1794 7.55353C27.1811 7.56059 27.1705 7.56677 27.1485 7.57118C27.1264 7.57559 27.1149 7.57383 27.1132 7.56677C27.047 7.28257 26.949 7.0937 26.8202 6.99838C26.6913 6.90306 26.5042 6.88011 26.2579 6.92777C26.0929 6.95955 25.9773 6.98956 25.9102 7.0178C25.8431 7.04604 25.8016 7.08664 25.7849 7.13871C25.7681 7.19167 25.7716 7.27463 25.7937 7.38848L26.2853 9.92504C26.3074 10.0389 26.3365 10.1192 26.3718 10.1651C26.4071 10.2119 26.4636 10.2366 26.5404 10.241C26.6172 10.2454 26.7345 10.2322 26.8925 10.2013C26.9031 10.1995 26.9111 10.2092 26.9155 10.2313C26.9199 10.2534 26.9164 10.2657 26.9058 10.2675C26.7848 10.2913 26.6869 10.3081 26.6127 10.3187L26.1829 10.3963L25.7716 10.482C25.6993 10.4996 25.5987 10.5208 25.4698 10.5464C25.4627 10.5481 25.4566 10.5376 25.4521 10.5155C25.4477 10.4934 25.4495 10.482 25.4566 10.4802C25.6145 10.4493 25.7284 10.4184 25.7981 10.3857C25.8678 10.3531 25.9111 10.3081 25.9287 10.2489C25.9464 10.1907 25.9437 10.106 25.9226 9.99653L25.4292 7.44938C25.4071 7.33553 25.3789 7.25874 25.3445 7.21726C25.31 7.17666 25.2562 7.15636 25.1847 7.15725C25.1123 7.15813 24.9941 7.17402 24.829 7.20667C24.5969 7.24815 24.4354 7.34083 24.3427 7.48027Z" fill="white"/>
<path d="M31.8434 9.97624C31.8434 9.99831 31.8363 10.0098 31.8213 10.0098C31.7507 10.0107 31.6404 10.0089 31.4903 10.0036C31.3403 9.99831 31.2326 9.99654 31.1655 9.99742C31.0835 9.99919 30.9784 10.0045 30.8522 10.0133C30.7331 10.023 30.6413 10.0283 30.5777 10.0292C30.5627 10.0292 30.5548 10.0186 30.5548 9.99566C30.5548 9.97271 30.5619 9.96212 30.5769 9.96124C30.7154 9.95859 30.816 9.94447 30.8787 9.91711C30.9414 9.88975 30.9731 9.84474 30.9714 9.78119C30.9705 9.72912 30.9449 9.6488 30.8946 9.54113L30.2282 8.17841L29.1691 8.19518L28.7058 9.34608C28.6555 9.47405 28.6308 9.57908 28.6325 9.66116C28.6361 9.88181 28.8205 9.9886 29.1868 9.9833C29.2053 9.9833 29.215 9.99389 29.215 10.0168C29.215 10.0389 29.2062 10.0504 29.1877 10.0513C29.1206 10.0521 29.0235 10.0504 28.8964 10.0451C28.7543 10.0398 28.6308 10.038 28.5266 10.0398C28.4295 10.0416 28.3174 10.0468 28.1903 10.0566C28.0783 10.0663 27.9847 10.0716 27.9106 10.0724C27.892 10.0724 27.8823 10.0619 27.8823 10.0389C27.8823 10.0168 27.8911 10.0054 27.9097 10.0045C28.0138 10.0027 28.103 9.98154 28.1745 9.94094C28.2459 9.90034 28.3148 9.83062 28.3783 9.73C28.4419 9.63027 28.5116 9.48552 28.5875 9.29753L29.7243 6.48738C29.7313 6.4759 29.7446 6.47061 29.7631 6.46973C29.7817 6.46973 29.7931 6.47502 29.7967 6.48561L31.1647 9.24899C31.2962 9.52348 31.4074 9.70705 31.4983 9.80149C31.5901 9.89504 31.6969 9.94094 31.8204 9.93917C31.8354 9.9427 31.8434 9.95418 31.8434 9.97624ZM29.2177 8.07956L30.17 8.06456L29.6484 7.0081L29.2177 8.07956Z" fill="white"/>
<path d="M33.3167 9.82818C33.2973 9.93497 33.2937 10.0135 33.307 10.0656C33.3202 10.1177 33.3546 10.1574 33.4102 10.1847C33.4658 10.2121 33.5603 10.2386 33.6918 10.2633L34.2919 10.3754C34.5011 10.4142 34.6803 10.3816 34.8294 10.2756C34.9786 10.1706 35.0942 10.0073 35.1772 9.78758C35.1789 9.77699 35.1904 9.77346 35.2098 9.77964C35.2293 9.78493 35.239 9.79376 35.2363 9.80435C35.1463 10.1035 35.0827 10.3516 35.0457 10.5501C35.0404 10.5793 35.0307 10.5996 35.0174 10.6101C35.0042 10.6207 34.9804 10.6234 34.9477 10.6172L32.4023 10.1433C32.3953 10.1415 32.3935 10.13 32.3979 10.108C32.4023 10.0859 32.4076 10.0753 32.4147 10.0771C32.5541 10.1027 32.6583 10.1133 32.7254 10.1062C32.7933 10.1 32.8427 10.0718 32.8745 10.0232C32.9063 9.9738 32.9328 9.89437 32.9531 9.78405L33.4279 7.23337C33.4482 7.12305 33.4526 7.04009 33.4403 6.98448C33.4279 6.92888 33.3908 6.88475 33.3308 6.85298C33.2699 6.8212 33.1702 6.79208 33.0307 6.7656C33.0237 6.76384 33.0219 6.75236 33.0254 6.7303C33.0298 6.70823 33.0351 6.69764 33.0431 6.69941L33.3123 6.75501C33.465 6.7912 33.5894 6.81767 33.6847 6.83621C33.7871 6.85563 33.9168 6.87593 34.0722 6.89711L34.3378 6.94124C34.3484 6.943 34.352 6.95536 34.3484 6.97742C34.344 6.99949 34.337 7.0092 34.3255 7.00743C34.1896 6.98184 34.0872 6.97389 34.0192 6.98184C33.9513 6.98978 33.9001 7.0189 33.8665 7.06745C33.833 7.11599 33.8056 7.19542 33.7853 7.30574L33.3167 9.82818Z" fill="white"/>
<path d="M36.6886 10.9719C36.6921 11.0302 36.7221 11.0787 36.7777 11.1175C36.8333 11.1564 36.9287 11.1987 37.0637 11.2437C37.0743 11.2473 37.0761 11.2596 37.069 11.2808C37.0619 11.302 37.0531 11.3108 37.0425 11.3073C36.9366 11.2711 36.8519 11.2411 36.7892 11.2155L36.4141 11.0822L36.0461 10.9631C35.9808 10.9454 35.8943 10.9172 35.7839 10.8801C35.7734 10.8766 35.7716 10.8642 35.7787 10.843C35.7857 10.8219 35.7945 10.813 35.8051 10.8166C35.9393 10.8625 36.0408 10.8863 36.1087 10.8898C36.1767 10.8933 36.2305 10.8731 36.2711 10.8298C36.3117 10.7866 36.3497 10.7115 36.3859 10.6056L37.2199 8.14851C37.2561 8.0426 37.2711 7.96051 37.2649 7.90315C37.2587 7.84578 37.2279 7.79724 37.1731 7.75664C37.1175 7.71604 37.0231 7.67279 36.8881 7.62778C36.8775 7.62425 36.8757 7.61189 36.8828 7.59071C36.8898 7.56953 36.8987 7.5607 36.9092 7.56423L37.1678 7.65779C37.3144 7.71516 37.4353 7.76017 37.5306 7.79282C37.6365 7.82901 37.7654 7.86873 37.9163 7.91197L38.1678 7.99141C38.1784 7.99494 38.1802 8.00729 38.1731 8.02847C38.166 8.04966 38.1572 8.05848 38.1466 8.05495C38.016 8.01082 37.9154 7.98876 37.8466 7.98876C37.7777 7.98876 37.723 8.01082 37.6824 8.05407C37.6418 8.09732 37.6038 8.17234 37.5677 8.27825L36.738 10.7248C36.701 10.8307 36.6851 10.9128 36.6886 10.9719Z" fill="white"/>
<path d="M38.8242 11.864C38.8215 11.9222 38.8453 11.9743 38.8965 12.0193C38.9477 12.0643 39.0369 12.1173 39.1657 12.1782C39.1763 12.1826 39.1763 12.1958 39.1666 12.2161C39.1569 12.2364 39.1472 12.2443 39.1375 12.239C39.036 12.1914 38.9557 12.1508 38.8965 12.119L38.5391 11.9434L38.1869 11.7828C38.1243 11.7572 38.0413 11.7201 37.9363 11.6698C37.9257 11.6654 37.9257 11.6521 37.9354 11.6318C37.9451 11.6115 37.9548 11.6036 37.9654 11.6089C38.0934 11.6698 38.1913 11.706 38.2584 11.7166C38.3255 11.728 38.382 11.7139 38.427 11.6751C38.472 11.6362 38.5188 11.5665 38.5664 11.465L39.6776 9.11999C39.7253 9.01849 39.75 8.93906 39.75 8.88169C39.75 8.82432 39.7253 8.77225 39.675 8.72547C39.6247 8.6787 39.5355 8.62486 39.4067 8.56396C39.3961 8.55955 39.3961 8.54631 39.4058 8.52601C39.4155 8.50571 39.4252 8.49777 39.4349 8.50306L39.6803 8.62574C39.8188 8.69988 39.9336 8.75813 40.0254 8.80138C40.1269 8.84903 40.2495 8.90376 40.3952 8.96377L40.6352 9.07145C40.6458 9.07586 40.6458 9.0891 40.6361 9.1094C40.6264 9.1297 40.6167 9.13764 40.6061 9.13235C40.4808 9.07321 40.3846 9.03967 40.3157 9.03173C40.2469 9.02379 40.1904 9.03967 40.1454 9.07762C40.1004 9.11646 40.0536 9.18618 40.0059 9.28768L38.8992 11.6221C38.8524 11.7254 38.8268 11.8048 38.8242 11.864Z" fill="white"/>
<path d="M43.0159 14.6963C43.0036 14.7148 42.9904 14.7192 42.978 14.7113C42.9197 14.6707 42.8315 14.6045 42.7132 14.5136C42.595 14.4218 42.5076 14.3573 42.4529 14.3185C42.3849 14.2717 42.2975 14.2152 42.189 14.149C42.0866 14.0873 42.0089 14.0378 41.9568 14.0017C41.9445 13.9928 41.9445 13.9796 41.9577 13.9611C41.9701 13.9425 41.9833 13.9381 41.9957 13.9461C42.1095 14.0246 42.1996 14.0714 42.2666 14.0864C42.3337 14.1014 42.3858 14.0829 42.422 14.0299C42.452 13.9867 42.4776 13.9072 42.4996 13.7907L42.7538 12.2956L41.8836 11.691L40.8351 12.3547C40.7195 12.4289 40.6383 12.5004 40.5915 12.5675C40.4653 12.7484 40.5526 12.9434 40.8536 13.1526C40.8686 13.1632 40.8704 13.1782 40.8571 13.1959C40.8439 13.2144 40.8307 13.2179 40.8148 13.2073C40.7592 13.1694 40.6815 13.1102 40.5818 13.0317C40.4697 12.9443 40.3699 12.8711 40.2843 12.811C40.204 12.7554 40.1105 12.6945 40.0019 12.6284C39.9057 12.571 39.8272 12.5207 39.7654 12.4774C39.7504 12.4668 39.7486 12.4518 39.7618 12.4342C39.7742 12.4156 39.7883 12.4121 39.8042 12.4227C39.8898 12.4827 39.9746 12.5171 40.0566 12.526C40.1387 12.5357 40.2349 12.518 40.3452 12.4739C40.4556 12.4298 40.5959 12.3539 40.7671 12.2453L43.331 10.6284C43.3434 10.6231 43.3575 10.6266 43.3725 10.6372C43.3875 10.6478 43.3937 10.6593 43.3902 10.6699L42.8871 13.7122C42.8333 14.0114 42.8165 14.2258 42.8359 14.3556C42.8553 14.4853 42.9153 14.585 43.0168 14.6557C43.0283 14.6645 43.0283 14.6786 43.0159 14.6963ZM41.9913 11.6231L42.7732 12.1668L42.9665 11.0044L41.9913 11.6231Z" fill="white"/>
<path d="M17.4897 48.8986C17.4217 48.9833 17.3811 49.0512 17.3679 49.1024C17.3547 49.1545 17.3661 49.2057 17.4023 49.256C17.4385 49.3063 17.5082 49.3743 17.6133 49.459L18.0881 49.8438C18.254 49.9779 18.427 50.0336 18.6079 50.0124C18.7889 49.9903 18.968 49.9029 19.1463 49.7485C19.1534 49.7397 19.164 49.7423 19.179 49.7573C19.194 49.7714 19.1975 49.7829 19.1904 49.7917C18.9689 50.0115 18.795 50.2004 18.668 50.3566C18.6494 50.3795 18.6309 50.3928 18.6141 50.3963C18.5974 50.3998 18.5753 50.3901 18.5497 50.3689L16.5374 48.7397C16.5312 48.7353 16.5356 48.7238 16.5497 48.7061C16.5639 48.6885 16.5736 48.6823 16.5798 48.6867C16.6901 48.7759 16.7766 48.8341 16.8392 48.8606C16.9019 48.8871 16.9584 48.8862 17.0105 48.8588C17.0616 48.8306 17.1225 48.7732 17.1932 48.6858L18.8259 46.6691C18.8965 46.5818 18.9398 46.5111 18.9548 46.4564C18.9707 46.4017 18.9592 46.3461 18.9213 46.2887C18.8833 46.2314 18.8092 46.1581 18.6988 46.069C18.6927 46.0646 18.6971 46.0531 18.7112 46.0354C18.7253 46.0178 18.735 46.0116 18.7412 46.016L18.9513 46.1934C19.0687 46.2976 19.1649 46.3805 19.2408 46.4423C19.322 46.5085 19.4261 46.5879 19.5523 46.6806L19.765 46.8457C19.7738 46.8527 19.7712 46.8651 19.7571 46.8827C19.7429 46.9004 19.7315 46.9057 19.7226 46.8986C19.615 46.8112 19.5294 46.7556 19.4658 46.73C19.4023 46.7044 19.344 46.7053 19.2911 46.7327C19.2381 46.7592 19.1763 46.8165 19.1057 46.9039L17.4897 48.8986Z" fill="white"/>
<path d="M24.1047 49.4958C24.0941 49.5161 24.0861 49.5241 24.0791 49.5205C23.959 49.4587 23.8152 49.4411 23.6475 49.4658C23.4789 49.4905 23.3077 49.5549 23.1329 49.6582L21.9379 50.3422L21.3572 51.4737C21.3042 51.5769 21.276 51.6564 21.2716 51.7137C21.2672 51.7711 21.2901 51.8223 21.3404 51.8682C21.3898 51.915 21.4781 51.9706 21.6043 52.035C21.614 52.0403 21.614 52.0527 21.6043 52.073C21.5937 52.0933 21.584 52.1003 21.5743 52.095C21.471 52.0421 21.3925 51.9997 21.3378 51.9671L20.9909 51.7826L20.6441 51.6114C20.5823 51.584 20.5002 51.5443 20.3969 51.4913C20.3872 51.486 20.3872 51.4737 20.3969 51.4534C20.4075 51.4331 20.4172 51.426 20.4269 51.4313C20.5531 51.4957 20.6493 51.5355 20.7164 51.5487C20.7826 51.5619 20.84 51.5496 20.8859 51.5125C20.9318 51.4755 20.9812 51.4066 21.0324 51.3069L21.5725 50.2548L21.3669 48.6185C21.3492 48.4243 21.3131 48.2778 21.2583 48.179C21.2045 48.0801 21.1224 48.0025 21.013 47.946C21.0033 47.9407 21.0033 47.9283 21.013 47.908C21.0236 47.8877 21.0333 47.8807 21.043 47.886C21.0827 47.9063 21.1409 47.9407 21.2177 47.9883L21.3898 48.0828C21.5028 48.141 21.6476 48.2108 21.8241 48.2928L22.0959 48.4261C22.103 48.4296 22.1012 48.4411 22.0906 48.4614C22.08 48.4817 22.0721 48.4897 22.065 48.4861C21.892 48.3979 21.7879 48.3882 21.7517 48.4579C21.7332 48.4941 21.7279 48.5444 21.7376 48.6079L21.9362 50.1966L23.0226 49.5761C23.155 49.4976 23.2424 49.4181 23.283 49.3378C23.3448 49.2178 23.2856 49.1119 23.1056 49.0201C23.0985 49.0166 23.1012 49.0051 23.1109 48.9848C23.1215 48.9645 23.1294 48.9565 23.1365 48.9601L23.3686 49.0854C23.4913 49.1569 23.606 49.2196 23.7128 49.2743C23.7693 49.3034 23.839 49.3352 23.922 49.3696L24.1091 49.4596C24.117 49.464 24.1153 49.4764 24.1047 49.4958Z" fill="white"/>
<path d="M24.999 50.7692C25.0388 50.8928 25.0979 51.0022 25.1764 51.0993C25.255 51.1964 25.3671 51.3226 25.5145 51.4788C25.6716 51.6412 25.7925 51.7745 25.8763 51.8786C25.9602 51.9828 26.0237 52.1037 26.0652 52.2405C26.1076 52.3782 26.1058 52.5273 26.0626 52.6897C26.0158 52.8627 25.9293 53.0074 25.8048 53.1248C25.6804 53.2422 25.5233 53.3181 25.3335 53.3534C25.1438 53.3887 24.932 53.3746 24.6972 53.3111C24.4192 53.2352 24.1827 53.1036 23.9858 52.9148C23.9708 52.8989 23.962 52.883 23.9611 52.8671C23.9594 52.8512 23.9611 52.8283 23.9655 52.7983L24.0953 52.0437C24.0953 52.0287 24.1059 52.0216 24.1271 52.0234C24.1474 52.0251 24.1579 52.0339 24.1579 52.049C24.1447 52.3243 24.1915 52.5767 24.2974 52.8071C24.4033 53.0375 24.586 53.1875 24.8455 53.2581C25.0255 53.3066 25.1915 53.2987 25.3433 53.2334C25.4942 53.1681 25.5992 53.0269 25.6583 52.8106C25.7025 52.6482 25.7042 52.4982 25.6645 52.3596C25.6248 52.2211 25.5639 52.0993 25.4818 51.9933C25.3997 51.8883 25.285 51.7586 25.1367 51.6068C24.992 51.455 24.8808 51.3279 24.8022 51.2255C24.7237 51.1231 24.6654 51.0049 24.6284 50.8707C24.5913 50.7365 24.5939 50.5918 24.6354 50.4373C24.684 50.2573 24.774 50.1161 24.9046 50.0137C25.0352 49.9113 25.1853 49.8495 25.3556 49.8284C25.526 49.8072 25.6981 49.8195 25.871 49.8663C26.0837 49.9246 26.2832 50.0243 26.4686 50.1682C26.518 50.2008 26.5365 50.2388 26.525 50.282L26.3935 50.9139C26.39 50.9281 26.3785 50.9334 26.3609 50.9281C26.3423 50.9228 26.3344 50.9131 26.3344 50.8972C26.3565 50.7021 26.3265 50.5071 26.2435 50.312C26.1605 50.117 26.0008 49.9872 25.7625 49.9228C25.5604 49.8681 25.3944 49.8857 25.2629 49.9758C25.1314 50.0658 25.0432 50.1973 24.9955 50.3712C24.9576 50.5141 24.9584 50.6456 24.999 50.7692Z" fill="white"/>
<path d="M29.8469 53.1491C29.8584 53.15 29.8681 53.1526 29.8769 53.1571C29.8858 53.1615 29.8902 53.1676 29.8893 53.1747C29.8399 53.4068 29.8055 53.6522 29.7878 53.909C29.786 53.939 29.7772 53.9602 29.764 53.9717C29.7498 53.984 29.726 53.9884 29.6925 53.9867L27.3501 53.8243C27.343 53.8234 27.3395 53.8119 27.3413 53.7899C27.343 53.7678 27.3474 53.7563 27.3545 53.7572C27.4957 53.7669 27.5999 53.7652 27.6669 53.751C27.7331 53.7369 27.7808 53.7034 27.809 53.6513C27.8373 53.5992 27.8549 53.5171 27.8629 53.4051L28.042 50.8164C28.05 50.7043 28.0429 50.6214 28.0226 50.5675C28.0023 50.5137 27.96 50.474 27.8955 50.4493C27.8311 50.4246 27.7287 50.4069 27.5875 50.3972C27.5805 50.3963 27.5769 50.3848 27.5787 50.3628C27.5805 50.3407 27.5849 50.3292 27.5919 50.3301L29.8399 50.4855C29.8734 50.4881 29.8893 50.5058 29.8866 50.5393L29.8505 51.2277C29.8496 51.2392 29.8399 51.2445 29.8213 51.2454C29.8028 51.2462 29.7913 51.2401 29.7887 51.2286C29.7913 51.03 29.7419 50.872 29.6413 50.7546C29.5407 50.6373 29.4012 50.572 29.2221 50.5596L28.8814 50.5358C28.7508 50.5269 28.6546 50.5305 28.591 50.5464C28.5283 50.5622 28.4825 50.5949 28.4551 50.6434C28.4277 50.692 28.4101 50.767 28.403 50.8676L28.3245 52.0026L29.0067 52.0494C29.1859 52.0618 29.3156 52.0406 29.3959 51.9867C29.4762 51.932 29.5213 51.8341 29.5319 51.6928C29.5327 51.6858 29.5442 51.6823 29.5663 51.684C29.5883 51.6858 29.5998 51.6902 29.5989 51.6973L29.5619 52.15C29.5548 52.2586 29.5504 52.3407 29.5504 52.3963L29.5371 52.6646C29.5363 52.6716 29.5248 52.6752 29.5027 52.6734C29.4807 52.6716 29.4692 52.6672 29.4701 52.6602C29.4815 52.496 29.4498 52.376 29.3748 52.3001C29.2997 52.2233 29.1691 52.1791 28.982 52.1659L28.3165 52.12L28.2274 53.4059C28.2203 53.5101 28.2265 53.5877 28.245 53.6372C28.2645 53.6875 28.3024 53.7237 28.3615 53.7466C28.4198 53.7696 28.5125 53.7855 28.6396 53.7943L29.087 53.8252C29.2662 53.8375 29.4198 53.7846 29.5477 53.6663C29.6757 53.548 29.7684 53.3786 29.8249 53.1571C29.8249 53.1518 29.8328 53.1482 29.8469 53.1491Z" fill="white"/>
<path d="M34.5578 49.9662C34.5613 49.9882 34.5578 50.0006 34.5463 50.0023C34.3918 50.0279 34.2859 50.0888 34.2294 50.185C34.173 50.2812 34.1606 50.4251 34.1924 50.6166L34.6681 53.5318C34.669 53.5389 34.661 53.5459 34.6434 53.553C34.6257 53.5601 34.6125 53.5601 34.6037 53.5539L31.5561 50.8885L31.497 50.8408L31.8976 53.297C31.9285 53.4886 31.985 53.6209 32.0671 53.6924C32.1492 53.7639 32.2657 53.7878 32.4166 53.763C32.4272 53.7613 32.4351 53.771 32.4387 53.7939C32.4422 53.8169 32.4387 53.8284 32.4272 53.8301C32.3354 53.8451 32.2648 53.8548 32.2163 53.8592L31.9391 53.899L31.6576 53.9502C31.6064 53.9625 31.5314 53.9766 31.4316 53.9925C31.4246 53.9934 31.4184 53.9837 31.4149 53.9607C31.4113 53.9387 31.4131 53.9272 31.4202 53.9254C31.579 53.8998 31.6841 53.8398 31.737 53.7463C31.79 53.6527 31.8006 53.5097 31.7697 53.3182L31.3469 50.7296C31.181 50.6202 31.0248 50.5778 30.8774 50.6016C30.8668 50.6034 30.8588 50.5937 30.8553 50.5707C30.8518 50.5478 30.8553 50.5363 30.8668 50.5345L31.0724 50.5063C31.1174 50.5028 31.1783 50.4948 31.256 50.4816C31.3372 50.4683 31.4034 50.456 31.4546 50.4436C31.5058 50.4313 31.5455 50.4233 31.5755 50.418C31.6046 50.4136 31.6276 50.4163 31.6426 50.4269C31.6576 50.4375 31.6832 50.4631 31.7202 50.5019C31.775 50.561 31.8297 50.6149 31.8826 50.6625L34.4395 52.9308L34.0644 50.6352C34.0326 50.4436 33.9779 50.3104 33.9002 50.2362C33.8217 50.1621 33.707 50.1374 33.556 50.1621C33.549 50.163 33.5428 50.1533 33.5393 50.1303C33.5357 50.1083 33.5375 50.0968 33.5446 50.095L33.7608 50.065C33.8729 50.0544 33.9638 50.0429 34.0335 50.0315C34.0997 50.0209 34.1915 50.0023 34.308 49.975L34.5339 49.9326C34.5463 49.9335 34.5542 49.9441 34.5578 49.9662Z" fill="white"/>
<path d="M39.6108 51.531C39.6196 51.5513 39.6196 51.5637 39.609 51.569L39.0345 51.8223C39.0071 51.8347 38.9586 51.8567 38.8897 51.8894C38.82 51.922 38.6841 51.8779 38.4793 51.7579C38.2754 51.6378 38.0821 51.5293 37.9012 51.434L36.6806 50.7906L36.5835 51.0297L37.0928 52.1833C37.1378 52.2857 37.1819 52.3571 37.2243 52.3977C37.2666 52.4383 37.3214 52.4542 37.3893 52.4445C37.4564 52.4357 37.5552 52.4022 37.685 52.3448C37.6956 52.3404 37.7053 52.3483 37.7141 52.3686C37.7229 52.3889 37.7229 52.4013 37.7123 52.4066C37.61 52.4516 37.527 52.486 37.4643 52.5098L37.1034 52.6634L36.7574 52.8223C36.6974 52.8532 36.6126 52.892 36.5032 52.9405C36.4961 52.9441 36.4882 52.9352 36.4794 52.9141C36.4705 52.8929 36.4688 52.8814 36.4758 52.8788C36.6056 52.8214 36.6965 52.7711 36.7494 52.7278C36.8015 52.6846 36.828 52.6325 36.828 52.5734C36.828 52.5142 36.8059 52.433 36.7609 52.3307L35.7133 49.9565C35.6683 49.8541 35.625 49.7835 35.5827 49.7447C35.5412 49.7059 35.4865 49.69 35.4185 49.6979C35.3505 49.7059 35.2517 49.7376 35.1211 49.795C35.114 49.7976 35.1061 49.7897 35.0972 49.7685C35.0884 49.7473 35.0867 49.7359 35.0937 49.7332L35.3523 49.6255C35.4988 49.5691 35.6153 49.5223 35.7 49.4843C35.7989 49.4402 35.9189 49.3837 36.0593 49.3131L36.2984 49.2019C36.309 49.1975 36.3187 49.2054 36.3276 49.2257C36.3364 49.246 36.3364 49.2584 36.3258 49.2637C36.1996 49.3193 36.1105 49.3705 36.0601 49.4181C36.0098 49.4658 35.9842 49.5179 35.9834 49.5779C35.9834 49.637 36.0054 49.7182 36.0504 49.8206L36.5279 50.9026L37.1431 49.3263C37.2057 49.1639 37.2252 49.0554 37.2013 49.0007C37.1713 48.9327 37.0548 48.9424 36.8536 49.0316C36.8465 49.0342 36.8386 49.0254 36.8298 49.0051C36.8209 48.9848 36.8192 48.9724 36.8262 48.9698L37.0486 48.878C37.1881 48.8242 37.3143 48.773 37.4273 48.7235C37.5402 48.6741 37.6567 48.6185 37.7768 48.5576L37.9639 48.4685C37.9745 48.4641 37.9842 48.472 37.993 48.4923C38.0018 48.5126 38.0018 48.525 37.9912 48.5302C37.8509 48.592 37.7159 48.6882 37.5861 48.8197C37.4564 48.9504 37.3523 49.1128 37.2737 49.3069L36.8139 50.4587L37.9683 51.0765C38.361 51.291 38.6523 51.4366 38.8429 51.5116C39.0336 51.5866 39.1695 51.6211 39.2525 51.6131C39.3345 51.6052 39.444 51.5716 39.5808 51.5107C39.5923 51.5028 39.6011 51.5107 39.6108 51.531Z" fill="white"/>
<path d="M41.2579 50.2699C40.9446 50.3088 40.6436 50.2629 40.3559 50.134C40.0682 50.0051 39.8237 49.811 39.6216 49.5524C39.385 49.2488 39.2588 48.9293 39.2429 48.593C39.227 48.2567 39.2968 47.9408 39.4521 47.6442C39.6074 47.3477 39.8096 47.1023 40.0602 46.9073C40.34 46.6893 40.6374 46.5631 40.9516 46.5286C41.2658 46.4942 41.5641 46.5401 41.8448 46.6672C42.1255 46.7943 42.3611 46.9779 42.5491 47.2197C42.7583 47.488 42.8792 47.789 42.9127 48.1235C42.9463 48.458 42.8942 48.7819 42.7583 49.097C42.6224 49.412 42.4158 49.6768 42.1387 49.8931C41.8651 50.1058 41.5712 50.2311 41.2579 50.2699ZM42.6488 49.1102C42.7336 48.8878 42.7486 48.646 42.6947 48.3856C42.6409 48.1243 42.512 47.8649 42.3099 47.6054C42.0937 47.3283 41.8501 47.1226 41.58 46.9876C41.3091 46.8525 41.0328 46.7978 40.7522 46.8234C40.4706 46.849 40.205 46.9585 39.9543 47.1544C39.6304 47.4068 39.4583 47.7095 39.4389 48.0608C39.4195 48.413 39.5518 48.7713 39.8369 49.1367C40.0531 49.4138 40.3012 49.6265 40.5827 49.7739C40.8642 49.9222 41.1484 49.9893 41.4362 49.9751C41.7239 49.9619 41.986 49.863 42.2217 49.6786C42.422 49.5224 42.5641 49.3326 42.6488 49.1102Z" fill="white"/>
<path d="M14.8951 14.8967C10.8608 18.9311 8.63929 24.2954 8.63929 30.0005C8.63929 35.7055 10.8608 41.0699 14.8951 45.1042C15.2251 45.4342 15.5649 45.7529 15.9127 46.0582V46.4086C15.4996 46.0538 15.0972 45.6805 14.708 45.2913C10.6233 41.2066 8.37451 35.777 8.37451 30.0005C8.37451 24.2239 10.6233 18.7943 14.708 14.7096C15.0972 14.3204 15.4996 13.9471 15.9127 13.5923V13.9427C15.5649 14.248 15.2251 14.5667 14.8951 14.8967Z" fill="white"/>
<path d="M45.1045 14.8967C49.1388 18.9311 51.3603 24.2954 51.3603 30.0005C51.3603 35.7055 49.1388 41.0699 45.1045 45.1042C44.7744 45.4342 44.4347 45.7529 44.0869 46.0582V46.4086C44.5 46.0538 44.9024 45.6805 45.2916 45.2913C49.3763 41.2066 51.6251 35.777 51.6251 30.0005C51.6251 24.2239 49.3763 18.7943 45.2916 14.7096C44.9024 14.3204 44.5 13.9471 44.0869 13.5923V13.9427C44.4347 14.248 44.7744 14.5667 45.1045 14.8967Z" fill="white"/>
<path fill-rule="evenodd" clip-rule="evenodd" d="M31.1142 21.4085C31.1142 22.0378 30.8697 22.6292 30.4249 23.074L29.9995 23.4994L29.5741 23.074C29.1292 22.6292 28.8848 22.0378 28.8848 21.4085C28.8848 20.7793 29.1292 20.1879 29.5741 19.7431L29.9995 19.3186L30.4249 19.7431C30.8697 20.1879 31.1142 20.7801 31.1142 21.4085ZM28.4858 21.4085C28.4858 21.4306 28.4858 21.4527 28.4867 21.4747V21.4756C28.4876 21.4977 28.4876 21.5189 28.4894 21.5409V21.5427C28.4911 21.5859 28.4947 21.6301 28.4991 21.6733V21.6751C28.5008 21.6963 28.5035 21.7174 28.5061 21.7386V21.7404C28.5088 21.7625 28.5114 21.7845 28.515 21.8066C28.5997 22.3953 28.8724 22.9389 29.2925 23.3573L30.0004 24.0651L30.7082 23.3573C31.1274 22.9381 31.4001 22.3953 31.4858 21.8066C31.4893 21.7845 31.4919 21.7625 31.4946 21.7404V21.7386C31.4972 21.7174 31.499 21.6963 31.5016 21.6751V21.6733C31.506 21.6301 31.5087 21.5868 31.5113 21.5427V21.5409C31.5122 21.5189 31.5131 21.4977 31.514 21.4756V21.4747C31.5149 21.4527 31.5149 21.4306 31.5149 21.4085C31.5149 21.3865 31.5149 21.3644 31.514 21.3423V21.3415C31.5131 21.3194 31.5131 21.2982 31.5113 21.2761V21.2744C31.5096 21.2311 31.506 21.187 31.5016 21.1438V21.142C31.4999 21.1208 31.4972 21.0996 31.4946 21.0785V21.0767C31.4919 21.0546 31.4893 21.0326 31.4858 21.0105C31.401 20.4218 31.1283 19.8781 30.7082 19.4598L30.0004 18.752L29.2925 19.4598C28.8733 19.879 28.6006 20.4218 28.515 21.0105C28.5114 21.0326 28.5088 21.0546 28.5061 21.0767V21.0785C28.5035 21.0996 28.5017 21.1208 28.4991 21.142V21.1438C28.4947 21.187 28.492 21.2303 28.4894 21.2744V21.2761C28.4885 21.2982 28.4876 21.3194 28.4867 21.3415V21.3423C28.4858 21.3644 28.4858 21.3865 28.4858 21.4085ZM30.7567 23.3061C30.7726 23.2893 30.7894 23.2717 30.8044 23.254L30.7567 23.3061ZM29.2422 19.5119C29.2263 19.5286 29.2096 19.5463 29.1946 19.5639L29.2422 19.5119ZM30.7567 19.5119C30.7726 19.5286 30.7894 19.5463 30.8044 19.5639L30.7567 19.5119ZM29.2422 23.3061C29.2263 23.2893 29.2096 23.2717 29.1946 23.254L29.2422 23.3061Z" fill="white"/>
<path fill-rule="evenodd" clip-rule="evenodd" d="M31.1142 38.5926C31.1142 39.2219 30.8697 39.8132 30.4249 40.2581L29.9995 40.6835L29.5741 40.2581C29.1292 39.8132 28.8848 39.2219 28.8848 38.5926C28.8848 37.9633 29.1292 37.372 29.5741 36.9272L29.9995 36.5027L30.4249 36.9272C30.8697 37.372 31.1142 37.9633 31.1142 38.5926ZM28.4858 38.5926C28.4858 38.6147 28.4858 38.6368 28.4867 38.6588V38.6597C28.4876 38.6818 28.4876 38.7029 28.4894 38.725V38.7268C28.4911 38.77 28.4947 38.8142 28.4991 38.8574V38.8592C28.5008 38.8803 28.5035 38.9015 28.5061 38.9227V38.9245C28.5088 38.9465 28.5114 38.9686 28.515 38.9907C28.5997 39.5794 28.8724 40.123 29.2925 40.5414L30.0004 41.2492L30.7082 40.5414C31.1274 40.1221 31.4001 39.5794 31.4858 38.9907C31.4893 38.9686 31.4919 38.9465 31.4946 38.9245V38.9227C31.4972 38.9015 31.499 38.8803 31.5016 38.8592V38.8574C31.506 38.8142 31.5087 38.7709 31.5113 38.7268V38.725C31.5122 38.7029 31.5131 38.6818 31.514 38.6597V38.6588C31.5149 38.6368 31.5149 38.6147 31.5149 38.5926C31.5149 38.5706 31.5149 38.5485 31.514 38.5264V38.5255C31.5131 38.5035 31.5131 38.4823 31.5113 38.4602V38.4585C31.5096 38.4152 31.506 38.3711 31.5016 38.3278V38.3261C31.4999 38.3049 31.4972 38.2837 31.4946 38.2625V38.2608C31.4919 38.2387 31.4893 38.2166 31.4858 38.1946C31.401 37.6059 31.1283 37.0622 30.7082 36.6439L30.0004 35.936L29.2925 36.6439C28.8733 37.0631 28.6006 37.6059 28.515 38.1946C28.5114 38.2166 28.5088 38.2387 28.5061 38.2608V38.2625C28.5035 38.2837 28.5017 38.3049 28.4991 38.3261V38.3278C28.4947 38.3711 28.492 38.4143 28.4894 38.4585V38.4602C28.4885 38.4823 28.4876 38.5035 28.4867 38.5255V38.5264C28.4858 38.5485 28.4858 38.5706 28.4858 38.5926ZM30.7567 40.4893C30.7726 40.4725 30.7894 40.4549 30.8044 40.4372L30.7567 40.4893ZM29.2422 36.6951C29.2263 36.7118 29.2096 36.7295 29.1946 36.7471L29.2422 36.6951ZM30.7567 36.6951C30.7726 36.7118 30.7894 36.7295 30.8044 36.7471L30.7567 36.6951ZM29.2422 40.4893C29.2263 40.4725 29.2096 40.4549 29.1946 40.4372L29.2422 40.4893Z" fill="white"/>
<path fill-rule="evenodd" clip-rule="evenodd" d="M38.5921 32.2553C37.9628 32.2553 37.3715 32.0108 36.9267 31.566L36.5013 31.1406L36.9267 30.7152C37.3715 30.2704 37.9628 30.0259 38.5921 30.0259C39.2214 30.0259 39.8127 30.2704 40.2576 30.7152L40.6821 31.1406L40.2576 31.566C39.8119 32.0108 39.2205 32.2553 38.5921 32.2553ZM38.5921 29.627C38.5701 29.627 38.548 29.627 38.5259 29.6278H38.5251C38.503 29.6287 38.4818 29.6287 38.4597 29.6305H38.458C38.4147 29.6322 38.3706 29.6358 38.3274 29.6402H38.3256C38.3044 29.642 38.2832 29.6446 38.262 29.6473H38.2603C38.2382 29.6499 38.2162 29.6525 38.1941 29.6561C37.6054 29.7408 37.0617 30.0135 36.6434 30.4336L35.9355 31.1415L36.6434 31.8493C37.0626 32.2685 37.6054 32.5413 38.1941 32.6269C38.2162 32.6304 38.2382 32.633 38.2603 32.6357H38.262C38.2832 32.6383 38.3044 32.6401 38.3256 32.6428H38.3274C38.3706 32.6472 38.4138 32.6498 38.458 32.6525H38.4597C38.4818 32.6533 38.503 32.6542 38.5251 32.6551H38.5259C38.548 32.656 38.5701 32.656 38.5921 32.656C38.6142 32.656 38.6363 32.656 38.6583 32.6551H38.6592C38.6813 32.6542 38.7025 32.6542 38.7245 32.6525H38.7263C38.7695 32.6507 38.8137 32.6472 38.8569 32.6428H38.8587C38.8799 32.641 38.901 32.6383 38.9222 32.6357H38.924C38.946 32.633 38.9681 32.6304 38.9902 32.6269C39.5789 32.5421 40.1225 32.2694 40.5409 31.8493L41.2487 31.1415L40.5409 30.4336C40.1217 30.0144 39.5789 29.7417 38.9902 29.6561C38.9681 29.6525 38.946 29.6499 38.924 29.6473H38.9222C38.901 29.6446 38.8799 29.6428 38.8587 29.6402H38.8569C38.8137 29.6358 38.7704 29.6331 38.7263 29.6305H38.7245C38.7025 29.6296 38.6813 29.6287 38.6592 29.6278H38.6583C38.6363 29.627 38.6142 29.627 38.5921 29.627ZM36.6946 31.8978C36.7113 31.9137 36.729 31.9305 36.7466 31.9455L36.6946 31.8978ZM40.4888 30.3833C40.472 30.3674 40.4544 30.3507 40.4367 30.3357L40.4888 30.3833ZM40.4888 31.8978C40.472 31.9137 40.4544 31.9305 40.4367 31.9455L40.4888 31.8978ZM36.6946 30.3833C36.7113 30.3674 36.729 30.3507 36.7466 30.3357L36.6946 30.3833Z" fill="white"/>
<path fill-rule="evenodd" clip-rule="evenodd" d="M21.408 32.2367C20.7788 32.2367 20.1874 31.9923 19.7426 31.5474L19.3172 31.122L19.7426 30.6966C20.1874 30.2518 20.7788 30.0073 21.408 30.0073C22.0373 30.0073 22.6287 30.2518 23.0735 30.6966L23.498 31.122L23.0735 31.5474C22.6287 31.9923 22.0373 32.2367 21.408 32.2367ZM21.408 29.6084C21.386 29.6084 21.3639 29.6084 21.3419 29.6093H21.341C21.3189 29.6102 21.2977 29.6102 21.2757 29.6119H21.2739C21.2306 29.6137 21.1865 29.6172 21.1433 29.6216H21.1415C21.1203 29.6234 21.0991 29.6261 21.078 29.6287H21.0762C21.0541 29.6313 21.0321 29.634 21.01 29.6375C20.4213 29.7223 19.8776 29.995 19.4593 30.4151L18.7515 31.1229L19.4593 31.8308C19.8785 32.25 20.4213 32.5227 21.01 32.6083C21.0321 32.6118 21.0541 32.6145 21.0762 32.6171H21.078C21.0991 32.6198 21.1203 32.6215 21.1415 32.6242H21.1433C21.1865 32.6286 21.2298 32.6313 21.2739 32.6339H21.2757C21.2977 32.6348 21.3189 32.6357 21.341 32.6366H21.3419C21.3639 32.6374 21.386 32.6374 21.408 32.6374C21.4301 32.6374 21.4522 32.6374 21.4742 32.6366H21.4751C21.4972 32.6357 21.5184 32.6357 21.5404 32.6339H21.5422C21.5854 32.6321 21.6296 32.6286 21.6728 32.6242H21.6746C21.6958 32.6224 21.717 32.6198 21.7381 32.6171H21.7399C21.762 32.6145 21.784 32.6118 21.8061 32.6083C22.3948 32.5236 22.9385 32.2509 23.3568 31.8308L24.0646 31.1229L23.3568 30.4151C22.9376 29.9959 22.3948 29.7231 21.8061 29.6375C21.784 29.634 21.762 29.6313 21.7399 29.6287H21.7381C21.717 29.6261 21.6958 29.6243 21.6746 29.6216H21.6728C21.6296 29.6172 21.5863 29.6146 21.5422 29.6119H21.5404C21.5184 29.611 21.4972 29.6102 21.4751 29.6093H21.4742C21.4522 29.6084 21.4301 29.6084 21.408 29.6084ZM19.5114 31.8793C19.5281 31.8952 19.5458 31.9119 19.5634 31.927L19.5114 31.8793ZM23.3056 30.3648C23.2888 30.3489 23.2712 30.3321 23.2535 30.3171L23.3056 30.3648ZM23.3056 31.8793C23.2888 31.8952 23.2712 31.9119 23.2535 31.927L23.3056 31.8793ZM19.5114 30.3648C19.5281 30.3489 19.5458 30.3321 19.5634 30.3171L19.5114 30.3648Z" fill="white"/>
<path d="M31.2798 33.6066C31.6275 35.6842 33.4359 37.2729 35.6098 37.2782H35.6301H36.2134H37.3635V35.761V35.7593V35.7504C37.3573 33.4248 35.5374 31.5175 33.2471 31.371V31.3666L33.1315 31.3649C33.0758 31.3631 33.0194 31.3613 32.9638 31.3613H32.8473V31.7611V33.2156C32.8473 34.4998 33.9002 35.5448 35.1835 35.5448V35.1423C34.1173 35.1423 33.2497 34.2739 33.2497 33.2156H33.2471V31.7708C35.3203 31.9165 36.9628 33.6499 36.9636 35.7584V36.8775H36.2037H35.6336C33.6681 36.8775 32.0291 35.4724 31.6849 33.6057H31.2798V33.6066Z" fill="white"/>
<path d="M19.5142 21.6186V21.788V23.4782V23.4808V23.4941C19.5221 26.8514 22.1725 29.5124 25.5096 29.6395C25.5263 29.6404 25.6773 29.6448 25.6773 29.6395H27.1538V29.0111V28.839V26.456V26.4287C27.1388 24.0183 25.176 22.0616 22.763 22.0563H22.7427H21.0755V23.5735V23.5752V23.5841C21.0816 26.005 23.0533 27.9732 25.476 27.9732H25.5925V27.5734H25.476C23.2713 27.5734 21.477 25.78 21.4761 23.5752V22.4561H22.7391C24.9527 22.4561 26.754 24.239 26.754 26.456V28.839V29.0111V29.2397H25.5175C22.4143 29.1541 19.9157 26.6034 19.9157 23.4799V22.0245V21.8551V20.8948H20.5786H22.5529C25.6243 20.8948 28.1414 23.3096 28.3065 26.3404H28.7063C28.5413 23.0916 25.8485 20.4977 22.56 20.4941H22.5529H20.5415H19.5142V21.6186Z" fill="white"/>
<path d="M40.486 21.6184V21.7878V23.478V23.4806V23.4939C40.478 26.8512 37.8276 29.5122 34.4906 29.6393C34.4738 29.6402 34.3229 29.6446 34.3229 29.6393H32.8463V29.0109V28.8388V26.4558V26.4285C32.8613 24.0181 34.8242 22.0614 37.2372 22.0561H37.2575H38.9247V23.5733V23.5751V23.5839C38.9185 26.0048 36.9468 27.973 34.5241 27.973H34.4076V27.5732H34.5241C36.7288 27.5732 38.5231 25.7798 38.524 23.5751V22.4559H37.261C35.0475 22.4559 33.2461 24.2388 33.2461 26.4558V28.8388V29.0109V29.2395H34.4826C37.5858 29.1539 40.0844 26.6032 40.0844 23.4797V22.0244V21.8549V20.8946H39.4216H37.4472C34.2699 20.8946 31.6848 23.4789 31.6848 26.6562V33.2067H30.5498L29.1288 27.1398H28.7131V27.6994V30.2042V30.7717V33.0946C28.7131 33.5271 28.7184 33.7363 28.5852 34.1705C28.0327 35.9648 26.361 37.2737 24.3885 37.2772H24.3682H23.7848H22.6348V35.7601V35.7583V35.7495C22.6409 33.4238 24.4608 31.5166 26.7512 31.3701V31.3657L26.8668 31.3639C26.9224 31.3621 26.9789 31.3604 27.0345 31.3604H27.151V31.7602V33.2147C27.151 34.4988 26.098 35.5438 24.8148 35.5438V35.1414C25.8809 35.1414 26.7485 34.2729 26.7485 33.2147H26.7512V31.7699C24.678 31.9155 23.0355 33.6489 23.0346 35.7574V36.8765H23.7945H24.3646C26.1678 36.8765 27.6964 35.6939 28.2021 34.0575C28.3283 33.6498 28.3133 33.4256 28.3133 33.0152V30.7708V27.6985V26.7383H29.4483L30.8693 32.8052H31.285V26.6544V26.5873H31.2859C31.3221 23.2229 34.0687 20.4966 37.4402 20.4922H37.4472H39.4586H40.4851V21.6184H40.486Z" fill="white"/>
</g>
<defs>
<clipPath id="clip0_374_199">
<rect width="60" height="60" fill="white"/>
</clipPath>
</defs>
</svg>
