<svg width="204.002930" height="196.880859" viewBox="0 0 204.003 196.881" fill="none" xmlns="http://www.w3.org/2000/svg" xmlns:xlink="http://www.w3.org/1999/xlink">
	<desc>
			Created with Pixso.
	</desc>
	<defs/>
	<path id="Vector" d="M112.1 23.23C112.1 28.74 109.89 33.91 105.85 37.81L101.99 41.53L98.14 37.81C94.11 33.92 91.89 28.74 91.88 23.23C91.88 17.73 94.1 12.56 98.14 8.66L101.99 4.94L105.85 8.66C109.89 12.56 112.1 17.73 112.1 23.23ZM88.26 23.23C88.26 23.42 88.26 23.61 88.27 23.81C88.27 24 88.28 24.19 88.29 24.38L88.29 24.39C88.31 24.77 88.34 25.15 88.38 25.53L88.38 25.55C88.4 25.74 88.42 25.92 88.44 26.11L88.44 26.13C88.46 26.32 88.49 26.51 88.52 26.7C89.29 31.85 91.77 36.61 95.57 40.28L101.99 46.47L108.41 40.28C112.21 36.6 114.69 31.85 115.46 26.7C115.49 26.51 115.52 26.32 115.54 26.13L115.54 26.11C115.56 25.93 115.58 25.74 115.6 25.55L115.6 25.53C115.64 25.14 115.67 24.76 115.69 24.39L115.69 24.38C115.7 24.19 115.71 24 115.71 23.81C115.71 23.61 115.72 23.42 115.72 23.23C115.72 23.04 115.72 22.85 115.71 22.66C115.71 22.47 115.7 22.28 115.69 22.09L115.69 22.08C115.67 21.69 115.64 21.31 115.6 20.94L115.6 20.92C115.58 20.73 115.56 20.55 115.54 20.36L115.54 20.34C115.52 20.14 115.49 19.95 115.46 19.76C114.69 14.61 112.21 9.85 108.41 6.19L101.99 0L95.57 6.19C91.77 9.86 89.29 14.61 88.52 19.76C88.49 19.95 88.46 20.14 88.44 20.34L88.44 20.36C88.42 20.54 88.4 20.73 88.38 20.92L88.38 20.94C88.34 21.32 88.31 21.7 88.29 22.08L88.29 22.09C88.28 22.28 88.27 22.47 88.27 22.66C88.26 22.85 88.26 23.04 88.26 23.23ZM108.87 39.84C109.01 39.68 109.16 39.54 109.3 39.39L108.87 39.84ZM95.13 6.63C94.98 6.78 94.83 6.93 94.69 7.08L95.13 6.63ZM108.87 6.63C109.01 6.78 109.16 6.93 109.3 7.08L108.87 6.63ZM95.13 39.84C94.98 39.68 94.83 39.54 94.69 39.39L95.13 39.84Z" fill="#FFFFFF" fill-opacity="1.000000" fill-rule="evenodd"/>
	<path id="Vector" d="M112.1 173.64C112.1 179.14 109.89 184.32 105.85 188.22L101.99 191.93L98.14 188.22C94.11 184.33 91.89 179.14 91.88 173.64C91.88 168.13 94.1 162.96 98.14 159.06L101.99 155.34L105.85 159.06C109.89 162.96 112.1 168.13 112.1 173.64ZM88.26 173.64C88.26 173.83 88.26 174.02 88.27 174.21C88.27 174.4 88.28 174.6 88.29 174.79L88.29 174.8C88.31 175.18 88.34 175.56 88.38 175.93L88.38 175.95C88.4 176.14 88.42 176.33 88.44 176.52L88.44 176.54C88.46 176.73 88.49 176.92 88.52 177.11C89.29 182.26 91.77 187.02 95.57 190.68L101.99 196.88L108.41 190.68C112.21 187.01 114.69 182.26 115.46 177.11C115.49 176.92 115.52 176.73 115.54 176.54L115.54 176.52C115.56 176.33 115.58 176.14 115.6 175.95L115.6 175.93C115.64 175.55 115.67 175.17 115.69 174.8L115.69 174.79C115.7 174.6 115.71 174.4 115.71 174.21C115.71 174.02 115.72 173.83 115.72 173.64C115.72 173.45 115.72 173.26 115.71 173.07C115.71 172.87 115.7 172.68 115.69 172.49L115.69 172.48C115.67 172.1 115.64 171.72 115.6 171.35L115.6 171.33C115.58 171.13 115.56 170.95 115.54 170.76L115.54 170.74C115.52 170.55 115.49 170.36 115.46 170.17C114.69 165.02 112.21 160.26 108.41 156.6L101.99 150.4L95.57 156.6C91.77 160.27 89.29 165.02 88.52 170.17C88.49 170.36 88.46 170.55 88.44 170.74L88.44 170.76C88.42 170.94 88.4 171.13 88.38 171.33L88.38 171.35C88.34 171.73 88.31 172.11 88.29 172.48L88.29 172.49C88.28 172.68 88.27 172.87 88.27 173.07C88.26 173.26 88.26 173.45 88.26 173.64ZM108.87 190.24C109.01 190.09 109.16 189.95 109.3 189.79L108.87 190.24ZM95.13 157.03C94.98 157.19 94.83 157.33 94.69 157.48L95.13 157.03ZM108.87 157.03C109.01 157.19 109.16 157.33 109.3 157.48L108.87 157.03ZM95.13 190.24C94.98 190.09 94.83 189.95 94.69 189.79L95.13 190.24Z" fill="#FFFFFF" fill-opacity="1.000000" fill-rule="evenodd"/>
	<path id="Vector" d="M179.92 118.18C174.22 118.18 168.86 116.04 164.82 112.14L160.96 108.42L164.82 104.7C168.85 100.81 174.22 98.67 179.92 98.66C185.63 98.66 190.98 100.8 195.02 104.7L198.88 108.42L195.02 112.14C190.98 116.03 185.62 118.18 179.92 118.18ZM179.92 95.17C179.72 95.17 179.52 95.17 179.33 95.18C179.13 95.18 178.93 95.19 178.73 95.2L178.72 95.2C178.33 95.22 177.93 95.25 177.54 95.29L177.52 95.29C177.33 95.31 177.14 95.32 176.94 95.34L176.92 95.34C176.72 95.36 176.52 95.39 176.33 95.42C170.99 96.17 166.05 98.56 162.26 102.23L155.84 108.42L162.26 114.61C166.06 118.29 170.99 120.68 176.33 121.42C176.52 121.45 176.72 121.48 176.92 121.5L176.94 121.5C177.13 121.52 177.33 121.54 177.52 121.55L177.54 121.55C177.94 121.59 178.34 121.62 178.72 121.64L178.73 121.64C178.93 121.65 179.13 121.66 179.33 121.66C179.52 121.66 179.72 121.67 179.92 121.67C180.12 121.67 180.32 121.67 180.52 121.66C180.71 121.66 180.91 121.65 181.11 121.64L181.12 121.64C181.52 121.62 181.91 121.59 182.3 121.55L182.32 121.55C182.52 121.54 182.7 121.52 182.9 121.5L182.92 121.5C183.12 121.48 183.32 121.45 183.52 121.42C188.85 120.68 193.79 118.29 197.58 114.61L204 108.42L197.58 102.23C193.78 98.56 188.85 96.17 183.52 95.42C183.32 95.39 183.12 95.36 182.92 95.34L182.9 95.34C182.7 95.32 182.52 95.31 182.32 95.29L182.3 95.29C181.9 95.25 181.51 95.22 181.12 95.2L181.11 95.2C180.91 95.19 180.71 95.18 180.52 95.18C180.32 95.17 180.12 95.17 179.92 95.17ZM162.71 115.04C162.87 115.19 163.01 115.33 163.17 115.47L162.71 115.04ZM197.12 101.79C196.97 101.64 196.82 101.5 196.66 101.37L197.12 101.79ZM197.12 115.04C196.97 115.19 196.82 115.33 196.66 115.47L197.12 115.04ZM162.71 101.79C162.87 101.64 163.01 101.5 163.17 101.37L162.71 101.79Z" fill="#FFFFFF" fill-opacity="1.000000" fill-rule="evenodd"/>
	<path id="Vector" d="M24.07 118.02C18.37 118.02 13.01 115.88 8.97 111.98L5.12 108.26L8.97 104.54C13 100.65 18.37 98.51 24.07 98.5C29.78 98.5 35.14 100.64 39.18 104.54L43.03 108.26L39.18 111.98C35.14 115.87 29.78 118.02 24.07 118.02ZM24.07 95.01C23.87 95.01 23.68 95.01 23.48 95.02C23.28 95.02 23.08 95.03 22.88 95.04L22.87 95.04C22.48 95.06 22.08 95.09 21.7 95.12L21.68 95.12C21.48 95.14 21.29 95.16 21.09 95.18L21.07 95.18C20.87 95.2 20.68 95.23 20.48 95.26C15.14 96 10.21 98.39 6.41 102.06L0 108.26L6.41 114.45C10.22 118.12 15.14 120.51 20.48 121.26C20.68 121.29 20.87 121.32 21.07 121.34L21.09 121.34C21.28 121.35 21.48 121.37 21.68 121.39L21.7 121.39C22.09 121.43 22.49 121.46 22.87 121.48L22.88 121.48C23.08 121.49 23.28 121.5 23.48 121.5C23.68 121.5 23.87 121.51 24.07 121.51C24.27 121.51 24.47 121.51 24.67 121.5C24.87 121.5 25.06 121.49 25.26 121.48L25.27 121.48C25.67 121.46 26.06 121.43 26.45 121.39L26.47 121.39C26.67 121.37 26.86 121.35 27.05 121.34L27.07 121.34C27.27 121.32 27.47 121.29 27.67 121.26C33.01 120.51 37.94 118.12 41.73 114.45L48.15 108.26L41.73 102.06C37.93 98.39 33.01 96 27.67 95.26C27.47 95.23 27.27 95.2 27.07 95.18L27.05 95.18C26.87 95.16 26.67 95.14 26.47 95.12L26.45 95.12C26.05 95.09 25.66 95.06 25.27 95.04L25.26 95.04C25.06 95.03 24.87 95.02 24.67 95.02C24.47 95.01 24.27 95.01 24.07 95.01ZM6.87 114.88C7.03 115.03 7.18 115.17 7.33 115.3L6.87 114.88ZM41.28 101.63C41.12 101.48 40.97 101.34 40.81 101.2L41.28 101.63ZM41.28 114.88C41.12 115.03 40.97 115.17 40.81 115.3L41.28 114.88ZM6.87 101.63C7.03 101.48 7.18 101.34 7.33 101.2L6.87 101.63Z" fill="#FFFFFF" fill-opacity="1.000000" fill-rule="evenodd"/>
	<path id="Vector" d="M113.6 130C116.75 148.18 133.15 162.08 152.87 162.13L153.05 162.13L158.34 162.13L168.76 162.13L168.76 148.86L168.76 148.84L168.76 148.76C168.72 128.4 152.2 111.71 131.42 110.43L131.42 110.39L130.37 110.38C129.87 110.36 129.36 110.35 128.85 110.35L127.79 110.35L127.79 113.85L127.79 126.58C127.79 137.81 137.34 146.97 148.98 146.97L148.98 143.45C139.31 143.45 131.43 135.86 131.43 126.59L131.41 126.59L131.41 113.95C150.21 115.23 165.11 130.39 165.12 148.86L165.12 158.65L158.24 158.65L153.07 158.65C135.24 158.65 120.37 146.36 117.26 130.02L113.6 130.02L113.6 130Z" fill="#FFFFFF" fill-opacity="1.000000" fill-rule="nonzero"/>
	<path id="Vector" d="M6.9 25.07L6.9 26.55L6.9 41.35L6.9 41.37L6.9 41.48C6.97 70.86 31 94.16 61.27 95.27C61.42 95.27 62.79 95.32 62.79 95.27L76.18 95.27L76.18 89.76L76.18 88.26L76.18 67.4L76.18 67.16C76.04 46.07 58.24 28.94 36.36 28.89L36.18 28.89L21.07 28.89L21.07 42.17L21.07 42.19L21.07 42.26C21.13 63.46 39.01 80.68 60.98 80.68L62.04 80.68L62.04 77.18L60.98 77.18C40.98 77.18 24.71 61.49 24.7 42.19L24.7 32.39L36.16 32.39C56.23 32.39 72.56 47.99 72.56 67.4L72.56 88.26L72.56 89.76L72.56 91.76L61.34 91.76C33.19 91.01 10.54 68.68 10.54 41.35L10.54 28.61L10.54 27.13L10.54 18.73L16.55 18.73L34.46 18.73C62.31 18.73 85.15 39.87 86.64 66.4L90.26 66.4C88.77 37.96 64.34 15.26 34.52 15.23L34.45 15.23L16.21 15.23L6.9 15.23L6.9 25.07Z" fill="#FFFFFF" fill-opacity="1.000000" fill-rule="nonzero"/>
	<path id="Vector" d="M197.09 25.07L197.09 26.55L197.09 41.35L197.09 41.37L197.09 41.48C197.02 70.86 172.98 94.16 142.71 95.27C142.57 95.27 141.2 95.32 141.2 95.27L127.81 95.27L127.81 89.76L127.81 88.26L127.81 67.4L127.81 67.16C127.95 46.07 145.75 28.94 167.62 28.89L167.8 28.89L182.92 28.89L182.92 42.17L182.92 42.19L182.92 42.26C182.86 63.46 164.98 80.68 143.01 80.68L141.95 80.68L141.95 77.18L143.01 77.18C163.01 77.18 179.28 61.49 179.29 42.19L179.29 32.39L167.83 32.39C147.76 32.39 131.42 47.99 131.42 67.4L131.42 88.26L131.42 89.76L131.42 91.76L142.64 91.76C170.79 91.01 193.45 68.68 193.45 41.35L193.45 28.61L193.45 27.13L193.45 18.73L187.43 18.73L169.53 18.73C140.71 18.73 117.27 41.36 117.27 69.16L117.27 126.51L106.98 126.51L94.09 73.41L90.33 73.41L90.33 78.31L90.33 100.24L90.33 105.21L90.33 125.54C90.33 129.33 90.38 131.16 89.16 134.96C84.15 150.66 68.99 162.11 51.1 162.15L50.92 162.15L45.63 162.15L35.2 162.15L35.2 148.87L35.2 148.85L35.2 148.78C35.25 128.42 51.76 111.73 72.54 110.45L72.54 110.41L73.59 110.4C74.1 110.38 74.6 110.37 75.12 110.37L76.18 110.37L76.18 113.87L76.18 126.6C76.18 137.83 66.63 146.99 54.99 146.99L54.99 143.47C64.66 143.47 72.53 135.87 72.53 126.61L72.55 126.61L72.55 113.97C53.75 115.25 38.86 130.41 38.85 148.87L38.85 158.67L45.73 158.67L50.9 158.67C67.25 158.67 81.12 148.32 85.7 134C86.84 130.43 86.71 128.47 86.71 124.88L86.71 105.24L86.71 78.35L86.71 69.95L97.01 69.95L109.89 123.05L113.66 123.05L113.66 69.21L113.66 68.62L113.66 68.62C113.99 39.17 138.9 15.31 169.48 15.27L169.55 15.27L187.79 15.27L197.1 15.27L197.1 25.07L197.09 25.07Z" fill="#FFFFFF" fill-opacity="1.000000" fill-rule="nonzero"/>
</svg>
