<svg xmlns="http://www.w3.org/2000/svg" version="1.1" xmlns:xlink="http://www.w3.org/1999/xlink" xmlns:svgjs="http://svgjs.dev/svgjs" viewBox="0 0 800 800" opacity="0.28"><g stroke-width="1.5" stroke="hsla(0, 0%, 80%, 1.00)" fill="none" stroke-linecap="round" transform="matrix(1,0,0,1,-5,-147.8718490600586)"><path d="M10,10C41.25,14.583333333333332,95.41666666666667,43.875,160,32C224.58333333333331,20.125,253.33333333333331,-53.458333333333336,320,-47C386.6666666666667,-40.541666666666664,413.3333333333333,58.833333333333336,480,63C546.6666666666666,67.16666666666667,573.3333333333334,-20.125,640,-27C706.6666666666666,-33.875,766.6666666666666,18.125,800,30"></path><path d="M10,10C41.25,14.583333333333332,95.41666666666667,43.875,160,32C224.58333333333331,20.125,253.33333333333331,-53.458333333333336,320,-47C386.6666666666667,-40.541666666666664,413.3333333333333,58.833333333333336,480,63C546.6666666666666,67.16666666666667,573.3333333333334,-20.125,640,-27C706.6666666666666,-33.875,766.6666666666666,18.125,800,30" transform="matrix(1,0,0,1,0,1080)"></path><path d="M10,10C41.25,14.583333333333332,95.41666666666667,43.875,160,32C224.58333333333331,20.125,253.33333333333331,-53.458333333333336,320,-47C386.6666666666667,-40.541666666666664,413.3333333333333,58.833333333333336,480,63C546.6666666666666,67.16666666666667,573.3333333333334,-20.125,640,-27C706.6666666666666,-33.875,766.6666666666666,18.125,800,30" transform="matrix(1,0,0,1,0,1062)"></path><path d="M10,10C41.25,14.583333333333332,95.41666666666667,43.875,160,32C224.58333333333331,20.125,253.33333333333331,-53.458333333333336,320,-47C386.6666666666667,-40.541666666666664,413.3333333333333,58.833333333333336,480,63C546.6666666666666,67.16666666666667,573.3333333333334,-20.125,640,-27C706.6666666666666,-33.875,766.6666666666666,18.125,800,30" transform="matrix(1,0,0,1,0,1044)"></path><path d="M10,10C41.25,14.583333333333332,95.41666666666667,43.875,160,32C224.58333333333331,20.125,253.33333333333331,-53.458333333333336,320,-47C386.6666666666667,-40.541666666666664,413.3333333333333,58.833333333333336,480,63C546.6666666666666,67.16666666666667,573.3333333333334,-20.125,640,-27C706.6666666666666,-33.875,766.6666666666666,18.125,800,30" transform="matrix(1,0,0,1,0,1026)"></path><path d="M10,10C41.25,14.583333333333332,95.41666666666667,43.875,160,32C224.58333333333331,20.125,253.33333333333331,-53.458333333333336,320,-47C386.6666666666667,-40.541666666666664,413.3333333333333,58.833333333333336,480,63C546.6666666666666,67.16666666666667,573.3333333333334,-20.125,640,-27C706.6666666666666,-33.875,766.6666666666666,18.125,800,30" transform="matrix(1,0,0,1,0,1008)"></path><path d="M10,10C41.25,14.583333333333332,95.41666666666667,43.875,160,32C224.58333333333331,20.125,253.33333333333331,-53.458333333333336,320,-47C386.6666666666667,-40.541666666666664,413.3333333333333,58.833333333333336,480,63C546.6666666666666,67.16666666666667,573.3333333333334,-20.125,640,-27C706.6666666666666,-33.875,766.6666666666666,18.125,800,30" transform="matrix(1,0,0,1,0,990)"></path><path d="M10,10C41.25,14.583333333333332,95.41666666666667,43.875,160,32C224.58333333333331,20.125,253.33333333333331,-53.458333333333336,320,-47C386.6666666666667,-40.541666666666664,413.3333333333333,58.833333333333336,480,63C546.6666666666666,67.16666666666667,573.3333333333334,-20.125,640,-27C706.6666666666666,-33.875,766.6666666666666,18.125,800,30" transform="matrix(1,0,0,1,0,972)"></path><path d="M10,10C41.25,14.583333333333332,95.41666666666667,43.875,160,32C224.58333333333331,20.125,253.33333333333331,-53.458333333333336,320,-47C386.6666666666667,-40.541666666666664,413.3333333333333,58.833333333333336,480,63C546.6666666666666,67.16666666666667,573.3333333333334,-20.125,640,-27C706.6666666666666,-33.875,766.6666666666666,18.125,800,30" transform="matrix(1,0,0,1,0,954)"></path><path d="M10,10C41.25,14.583333333333332,95.41666666666667,43.875,160,32C224.58333333333331,20.125,253.33333333333331,-53.458333333333336,320,-47C386.6666666666667,-40.541666666666664,413.3333333333333,58.833333333333336,480,63C546.6666666666666,67.16666666666667,573.3333333333334,-20.125,640,-27C706.6666666666666,-33.875,766.6666666666666,18.125,800,30" transform="matrix(1,0,0,1,0,936)"></path><path d="M10,10C41.25,14.583333333333332,95.41666666666667,43.875,160,32C224.58333333333331,20.125,253.33333333333331,-53.458333333333336,320,-47C386.6666666666667,-40.541666666666664,413.3333333333333,58.833333333333336,480,63C546.6666666666666,67.16666666666667,573.3333333333334,-20.125,640,-27C706.6666666666666,-33.875,766.6666666666666,18.125,800,30" transform="matrix(1,0,0,1,0,918)"></path><path d="M10,10C41.25,14.583333333333332,95.41666666666667,43.875,160,32C224.58333333333331,20.125,253.33333333333331,-53.458333333333336,320,-47C386.6666666666667,-40.541666666666664,413.3333333333333,58.833333333333336,480,63C546.6666666666666,67.16666666666667,573.3333333333334,-20.125,640,-27C706.6666666666666,-33.875,766.6666666666666,18.125,800,30" transform="matrix(1,0,0,1,0,900)"></path><path d="M10,10C41.25,14.583333333333332,95.41666666666667,43.875,160,32C224.58333333333331,20.125,253.33333333333331,-53.458333333333336,320,-47C386.6666666666667,-40.541666666666664,413.3333333333333,58.833333333333336,480,63C546.6666666666666,67.16666666666667,573.3333333333334,-20.125,640,-27C706.6666666666666,-33.875,766.6666666666666,18.125,800,30" transform="matrix(1,0,0,1,0,882)"></path><path d="M10,10C41.25,14.583333333333332,95.41666666666667,43.875,160,32C224.58333333333331,20.125,253.33333333333331,-53.458333333333336,320,-47C386.6666666666667,-40.541666666666664,413.3333333333333,58.833333333333336,480,63C546.6666666666666,67.16666666666667,573.3333333333334,-20.125,640,-27C706.6666666666666,-33.875,766.6666666666666,18.125,800,30" transform="matrix(1,0,0,1,0,864)"></path><path d="M10,10C41.25,14.583333333333332,95.41666666666667,43.875,160,32C224.58333333333331,20.125,253.33333333333331,-53.458333333333336,320,-47C386.6666666666667,-40.541666666666664,413.3333333333333,58.833333333333336,480,63C546.6666666666666,67.16666666666667,573.3333333333334,-20.125,640,-27C706.6666666666666,-33.875,766.6666666666666,18.125,800,30" transform="matrix(1,0,0,1,0,846)"></path><path d="M10,10C41.25,14.583333333333332,95.41666666666667,43.875,160,32C224.58333333333331,20.125,253.33333333333331,-53.458333333333336,320,-47C386.6666666666667,-40.541666666666664,413.3333333333333,58.833333333333336,480,63C546.6666666666666,67.16666666666667,573.3333333333334,-20.125,640,-27C706.6666666666666,-33.875,766.6666666666666,18.125,800,30" transform="matrix(1,0,0,1,0,828)"></path><path d="M10,10C41.25,14.583333333333332,95.41666666666667,43.875,160,32C224.58333333333331,20.125,253.33333333333331,-53.458333333333336,320,-47C386.6666666666667,-40.541666666666664,413.3333333333333,58.833333333333336,480,63C546.6666666666666,67.16666666666667,573.3333333333334,-20.125,640,-27C706.6666666666666,-33.875,766.6666666666666,18.125,800,30" transform="matrix(1,0,0,1,0,810)"></path><path d="M10,10C41.25,14.583333333333332,95.41666666666667,43.875,160,32C224.58333333333331,20.125,253.33333333333331,-53.458333333333336,320,-47C386.6666666666667,-40.541666666666664,413.3333333333333,58.833333333333336,480,63C546.6666666666666,67.16666666666667,573.3333333333334,-20.125,640,-27C706.6666666666666,-33.875,766.6666666666666,18.125,800,30" transform="matrix(1,0,0,1,0,792)"></path><path d="M10,10C41.25,14.583333333333332,95.41666666666667,43.875,160,32C224.58333333333331,20.125,253.33333333333331,-53.458333333333336,320,-47C386.6666666666667,-40.541666666666664,413.3333333333333,58.833333333333336,480,63C546.6666666666666,67.16666666666667,573.3333333333334,-20.125,640,-27C706.6666666666666,-33.875,766.6666666666666,18.125,800,30" transform="matrix(1,0,0,1,0,774)"></path><path d="M10,10C41.25,14.583333333333332,95.41666666666667,43.875,160,32C224.58333333333331,20.125,253.33333333333331,-53.458333333333336,320,-47C386.6666666666667,-40.541666666666664,413.3333333333333,58.833333333333336,480,63C546.6666666666666,67.16666666666667,573.3333333333334,-20.125,640,-27C706.6666666666666,-33.875,766.6666666666666,18.125,800,30" transform="matrix(1,0,0,1,0,756)"></path><path d="M10,10C41.25,14.583333333333332,95.41666666666667,43.875,160,32C224.58333333333331,20.125,253.33333333333331,-53.458333333333336,320,-47C386.6666666666667,-40.541666666666664,413.3333333333333,58.833333333333336,480,63C546.6666666666666,67.16666666666667,573.3333333333334,-20.125,640,-27C706.6666666666666,-33.875,766.6666666666666,18.125,800,30" transform="matrix(1,0,0,1,0,738)"></path><path d="M10,10C41.25,14.583333333333332,95.41666666666667,43.875,160,32C224.58333333333331,20.125,253.33333333333331,-53.458333333333336,320,-47C386.6666666666667,-40.541666666666664,413.3333333333333,58.833333333333336,480,63C546.6666666666666,67.16666666666667,573.3333333333334,-20.125,640,-27C706.6666666666666,-33.875,766.6666666666666,18.125,800,30" transform="matrix(1,0,0,1,0,720)"></path><path d="M10,10C41.25,14.583333333333332,95.41666666666667,43.875,160,32C224.58333333333331,20.125,253.33333333333331,-53.458333333333336,320,-47C386.6666666666667,-40.541666666666664,413.3333333333333,58.833333333333336,480,63C546.6666666666666,67.16666666666667,573.3333333333334,-20.125,640,-27C706.6666666666666,-33.875,766.6666666666666,18.125,800,30" transform="matrix(1,0,0,1,0,702)"></path><path d="M10,10C41.25,14.583333333333332,95.41666666666667,43.875,160,32C224.58333333333331,20.125,253.33333333333331,-53.458333333333336,320,-47C386.6666666666667,-40.541666666666664,413.3333333333333,58.833333333333336,480,63C546.6666666666666,67.16666666666667,573.3333333333334,-20.125,640,-27C706.6666666666666,-33.875,766.6666666666666,18.125,800,30" transform="matrix(1,0,0,1,0,684)"></path><path d="M10,10C41.25,14.583333333333332,95.41666666666667,43.875,160,32C224.58333333333331,20.125,253.33333333333331,-53.458333333333336,320,-47C386.6666666666667,-40.541666666666664,413.3333333333333,58.833333333333336,480,63C546.6666666666666,67.16666666666667,573.3333333333334,-20.125,640,-27C706.6666666666666,-33.875,766.6666666666666,18.125,800,30" transform="matrix(1,0,0,1,0,666)"></path><path d="M10,10C41.25,14.583333333333332,95.41666666666667,43.875,160,32C224.58333333333331,20.125,253.33333333333331,-53.458333333333336,320,-47C386.6666666666667,-40.541666666666664,413.3333333333333,58.833333333333336,480,63C546.6666666666666,67.16666666666667,573.3333333333334,-20.125,640,-27C706.6666666666666,-33.875,766.6666666666666,18.125,800,30" transform="matrix(1,0,0,1,0,648)"></path><path d="M10,10C41.25,14.583333333333332,95.41666666666667,43.875,160,32C224.58333333333331,20.125,253.33333333333331,-53.458333333333336,320,-47C386.6666666666667,-40.541666666666664,413.3333333333333,58.833333333333336,480,63C546.6666666666666,67.16666666666667,573.3333333333334,-20.125,640,-27C706.6666666666666,-33.875,766.6666666666666,18.125,800,30" transform="matrix(1,0,0,1,0,630)"></path><path d="M10,10C41.25,14.583333333333332,95.41666666666667,43.875,160,32C224.58333333333331,20.125,253.33333333333331,-53.458333333333336,320,-47C386.6666666666667,-40.541666666666664,413.3333333333333,58.833333333333336,480,63C546.6666666666666,67.16666666666667,573.3333333333334,-20.125,640,-27C706.6666666666666,-33.875,766.6666666666666,18.125,800,30" transform="matrix(1,0,0,1,0,612)"></path><path d="M10,10C41.25,14.583333333333332,95.41666666666667,43.875,160,32C224.58333333333331,20.125,253.33333333333331,-53.458333333333336,320,-47C386.6666666666667,-40.541666666666664,413.3333333333333,58.833333333333336,480,63C546.6666666666666,67.16666666666667,573.3333333333334,-20.125,640,-27C706.6666666666666,-33.875,766.6666666666666,18.125,800,30" transform="matrix(1,0,0,1,0,594)"></path><path d="M10,10C41.25,14.583333333333332,95.41666666666667,43.875,160,32C224.58333333333331,20.125,253.33333333333331,-53.458333333333336,320,-47C386.6666666666667,-40.541666666666664,413.3333333333333,58.833333333333336,480,63C546.6666666666666,67.16666666666667,573.3333333333334,-20.125,640,-27C706.6666666666666,-33.875,766.6666666666666,18.125,800,30" transform="matrix(1,0,0,1,0,576)"></path><path d="M10,10C41.25,14.583333333333332,95.41666666666667,43.875,160,32C224.58333333333331,20.125,253.33333333333331,-53.458333333333336,320,-47C386.6666666666667,-40.541666666666664,413.3333333333333,58.833333333333336,480,63C546.6666666666666,67.16666666666667,573.3333333333334,-20.125,640,-27C706.6666666666666,-33.875,766.6666666666666,18.125,800,30" transform="matrix(1,0,0,1,0,558)"></path><path d="M10,10C41.25,14.583333333333332,95.41666666666667,43.875,160,32C224.58333333333331,20.125,253.33333333333331,-53.458333333333336,320,-47C386.6666666666667,-40.541666666666664,413.3333333333333,58.833333333333336,480,63C546.6666666666666,67.16666666666667,573.3333333333334,-20.125,640,-27C706.6666666666666,-33.875,766.6666666666666,18.125,800,30" transform="matrix(1,0,0,1,0,540)"></path><path d="M10,10C41.25,14.583333333333332,95.41666666666667,43.875,160,32C224.58333333333331,20.125,253.33333333333331,-53.458333333333336,320,-47C386.6666666666667,-40.541666666666664,413.3333333333333,58.833333333333336,480,63C546.6666666666666,67.16666666666667,573.3333333333334,-20.125,640,-27C706.6666666666666,-33.875,766.6666666666666,18.125,800,30" transform="matrix(1,0,0,1,0,522)"></path><path d="M10,10C41.25,14.583333333333332,95.41666666666667,43.875,160,32C224.58333333333331,20.125,253.33333333333331,-53.458333333333336,320,-47C386.6666666666667,-40.541666666666664,413.3333333333333,58.833333333333336,480,63C546.6666666666666,67.16666666666667,573.3333333333334,-20.125,640,-27C706.6666666666666,-33.875,766.6666666666666,18.125,800,30" transform="matrix(1,0,0,1,0,504)"></path><path d="M10,10C41.25,14.583333333333332,95.41666666666667,43.875,160,32C224.58333333333331,20.125,253.33333333333331,-53.458333333333336,320,-47C386.6666666666667,-40.541666666666664,413.3333333333333,58.833333333333336,480,63C546.6666666666666,67.16666666666667,573.3333333333334,-20.125,640,-27C706.6666666666666,-33.875,766.6666666666666,18.125,800,30" transform="matrix(1,0,0,1,0,486)"></path><path d="M10,10C41.25,14.583333333333332,95.41666666666667,43.875,160,32C224.58333333333331,20.125,253.33333333333331,-53.458333333333336,320,-47C386.6666666666667,-40.541666666666664,413.3333333333333,58.833333333333336,480,63C546.6666666666666,67.16666666666667,573.3333333333334,-20.125,640,-27C706.6666666666666,-33.875,766.6666666666666,18.125,800,30" transform="matrix(1,0,0,1,0,468)"></path><path d="M10,10C41.25,14.583333333333332,95.41666666666667,43.875,160,32C224.58333333333331,20.125,253.33333333333331,-53.458333333333336,320,-47C386.6666666666667,-40.541666666666664,413.3333333333333,58.833333333333336,480,63C546.6666666666666,67.16666666666667,573.3333333333334,-20.125,640,-27C706.6666666666666,-33.875,766.6666666666666,18.125,800,30" transform="matrix(1,0,0,1,0,450)"></path><path d="M10,10C41.25,14.583333333333332,95.41666666666667,43.875,160,32C224.58333333333331,20.125,253.33333333333331,-53.458333333333336,320,-47C386.6666666666667,-40.541666666666664,413.3333333333333,58.833333333333336,480,63C546.6666666666666,67.16666666666667,573.3333333333334,-20.125,640,-27C706.6666666666666,-33.875,766.6666666666666,18.125,800,30" transform="matrix(1,0,0,1,0,432)"></path><path d="M10,10C41.25,14.583333333333332,95.41666666666667,43.875,160,32C224.58333333333331,20.125,253.33333333333331,-53.458333333333336,320,-47C386.6666666666667,-40.541666666666664,413.3333333333333,58.833333333333336,480,63C546.6666666666666,67.16666666666667,573.3333333333334,-20.125,640,-27C706.6666666666666,-33.875,766.6666666666666,18.125,800,30" transform="matrix(1,0,0,1,0,414)"></path><path d="M10,10C41.25,14.583333333333332,95.41666666666667,43.875,160,32C224.58333333333331,20.125,253.33333333333331,-53.458333333333336,320,-47C386.6666666666667,-40.541666666666664,413.3333333333333,58.833333333333336,480,63C546.6666666666666,67.16666666666667,573.3333333333334,-20.125,640,-27C706.6666666666666,-33.875,766.6666666666666,18.125,800,30" transform="matrix(1,0,0,1,0,396)"></path><path d="M10,10C41.25,14.583333333333332,95.41666666666667,43.875,160,32C224.58333333333331,20.125,253.33333333333331,-53.458333333333336,320,-47C386.6666666666667,-40.541666666666664,413.3333333333333,58.833333333333336,480,63C546.6666666666666,67.16666666666667,573.3333333333334,-20.125,640,-27C706.6666666666666,-33.875,766.6666666666666,18.125,800,30" transform="matrix(1,0,0,1,0,378)"></path><path d="M10,10C41.25,14.583333333333332,95.41666666666667,43.875,160,32C224.58333333333331,20.125,253.33333333333331,-53.458333333333336,320,-47C386.6666666666667,-40.541666666666664,413.3333333333333,58.833333333333336,480,63C546.6666666666666,67.16666666666667,573.3333333333334,-20.125,640,-27C706.6666666666666,-33.875,766.6666666666666,18.125,800,30" transform="matrix(1,0,0,1,0,360)"></path><path d="M10,10C41.25,14.583333333333332,95.41666666666667,43.875,160,32C224.58333333333331,20.125,253.33333333333331,-53.458333333333336,320,-47C386.6666666666667,-40.541666666666664,413.3333333333333,58.833333333333336,480,63C546.6666666666666,67.16666666666667,573.3333333333334,-20.125,640,-27C706.6666666666666,-33.875,766.6666666666666,18.125,800,30" transform="matrix(1,0,0,1,0,342)"></path><path d="M10,10C41.25,14.583333333333332,95.41666666666667,43.875,160,32C224.58333333333331,20.125,253.33333333333331,-53.458333333333336,320,-47C386.6666666666667,-40.541666666666664,413.3333333333333,58.833333333333336,480,63C546.6666666666666,67.16666666666667,573.3333333333334,-20.125,640,-27C706.6666666666666,-33.875,766.6666666666666,18.125,800,30" transform="matrix(1,0,0,1,0,324)"></path><path d="M10,10C41.25,14.583333333333332,95.41666666666667,43.875,160,32C224.58333333333331,20.125,253.33333333333331,-53.458333333333336,320,-47C386.6666666666667,-40.541666666666664,413.3333333333333,58.833333333333336,480,63C546.6666666666666,67.16666666666667,573.3333333333334,-20.125,640,-27C706.6666666666666,-33.875,766.6666666666666,18.125,800,30" transform="matrix(1,0,0,1,0,306)"></path><path d="M10,10C41.25,14.583333333333332,95.41666666666667,43.875,160,32C224.58333333333331,20.125,253.33333333333331,-53.458333333333336,320,-47C386.6666666666667,-40.541666666666664,413.3333333333333,58.833333333333336,480,63C546.6666666666666,67.16666666666667,573.3333333333334,-20.125,640,-27C706.6666666666666,-33.875,766.6666666666666,18.125,800,30" transform="matrix(1,0,0,1,0,288)"></path><path d="M10,10C41.25,14.583333333333332,95.41666666666667,43.875,160,32C224.58333333333331,20.125,253.33333333333331,-53.458333333333336,320,-47C386.6666666666667,-40.541666666666664,413.3333333333333,58.833333333333336,480,63C546.6666666666666,67.16666666666667,573.3333333333334,-20.125,640,-27C706.6666666666666,-33.875,766.6666666666666,18.125,800,30" transform="matrix(1,0,0,1,0,270)"></path><path d="M10,10C41.25,14.583333333333332,95.41666666666667,43.875,160,32C224.58333333333331,20.125,253.33333333333331,-53.458333333333336,320,-47C386.6666666666667,-40.541666666666664,413.3333333333333,58.833333333333336,480,63C546.6666666666666,67.16666666666667,573.3333333333334,-20.125,640,-27C706.6666666666666,-33.875,766.6666666666666,18.125,800,30" transform="matrix(1,0,0,1,0,252)"></path><path d="M10,10C41.25,14.583333333333332,95.41666666666667,43.875,160,32C224.58333333333331,20.125,253.33333333333331,-53.458333333333336,320,-47C386.6666666666667,-40.541666666666664,413.3333333333333,58.833333333333336,480,63C546.6666666666666,67.16666666666667,573.3333333333334,-20.125,640,-27C706.6666666666666,-33.875,766.6666666666666,18.125,800,30" transform="matrix(1,0,0,1,0,234)"></path><path d="M10,10C41.25,14.583333333333332,95.41666666666667,43.875,160,32C224.58333333333331,20.125,253.33333333333331,-53.458333333333336,320,-47C386.6666666666667,-40.541666666666664,413.3333333333333,58.833333333333336,480,63C546.6666666666666,67.16666666666667,573.3333333333334,-20.125,640,-27C706.6666666666666,-33.875,766.6666666666666,18.125,800,30" transform="matrix(1,0,0,1,0,216)"></path><path d="M10,10C41.25,14.583333333333332,95.41666666666667,43.875,160,32C224.58333333333331,20.125,253.33333333333331,-53.458333333333336,320,-47C386.6666666666667,-40.541666666666664,413.3333333333333,58.833333333333336,480,63C546.6666666666666,67.16666666666667,573.3333333333334,-20.125,640,-27C706.6666666666666,-33.875,766.6666666666666,18.125,800,30" transform="matrix(1,0,0,1,0,198)"></path><path d="M10,10C41.25,14.583333333333332,95.41666666666667,43.875,160,32C224.58333333333331,20.125,253.33333333333331,-53.458333333333336,320,-47C386.6666666666667,-40.541666666666664,413.3333333333333,58.833333333333336,480,63C546.6666666666666,67.16666666666667,573.3333333333334,-20.125,640,-27C706.6666666666666,-33.875,766.6666666666666,18.125,800,30" transform="matrix(1,0,0,1,0,180)"></path><path d="M10,10C41.25,14.583333333333332,95.41666666666667,43.875,160,32C224.58333333333331,20.125,253.33333333333331,-53.458333333333336,320,-47C386.6666666666667,-40.541666666666664,413.3333333333333,58.833333333333336,480,63C546.6666666666666,67.16666666666667,573.3333333333334,-20.125,640,-27C706.6666666666666,-33.875,766.6666666666666,18.125,800,30" transform="matrix(1,0,0,1,0,162)"></path><path d="M10,10C41.25,14.583333333333332,95.41666666666667,43.875,160,32C224.58333333333331,20.125,253.33333333333331,-53.458333333333336,320,-47C386.6666666666667,-40.541666666666664,413.3333333333333,58.833333333333336,480,63C546.6666666666666,67.16666666666667,573.3333333333334,-20.125,640,-27C706.6666666666666,-33.875,766.6666666666666,18.125,800,30" transform="matrix(1,0,0,1,0,144)"></path><path d="M10,10C41.25,14.583333333333332,95.41666666666667,43.875,160,32C224.58333333333331,20.125,253.33333333333331,-53.458333333333336,320,-47C386.6666666666667,-40.541666666666664,413.3333333333333,58.833333333333336,480,63C546.6666666666666,67.16666666666667,573.3333333333334,-20.125,640,-27C706.6666666666666,-33.875,766.6666666666666,18.125,800,30" transform="matrix(1,0,0,1,0,126)"></path><path d="M10,10C41.25,14.583333333333332,95.41666666666667,43.875,160,32C224.58333333333331,20.125,253.33333333333331,-53.458333333333336,320,-47C386.6666666666667,-40.541666666666664,413.3333333333333,58.833333333333336,480,63C546.6666666666666,67.16666666666667,573.3333333333334,-20.125,640,-27C706.6666666666666,-33.875,766.6666666666666,18.125,800,30" transform="matrix(1,0,0,1,0,108)"></path><path d="M10,10C41.25,14.583333333333332,95.41666666666667,43.875,160,32C224.58333333333331,20.125,253.33333333333331,-53.458333333333336,320,-47C386.6666666666667,-40.541666666666664,413.3333333333333,58.833333333333336,480,63C546.6666666666666,67.16666666666667,573.3333333333334,-20.125,640,-27C706.6666666666666,-33.875,766.6666666666666,18.125,800,30" transform="matrix(1,0,0,1,0,90)"></path><path d="M10,10C41.25,14.583333333333332,95.41666666666667,43.875,160,32C224.58333333333331,20.125,253.33333333333331,-53.458333333333336,320,-47C386.6666666666667,-40.541666666666664,413.3333333333333,58.833333333333336,480,63C546.6666666666666,67.16666666666667,573.3333333333334,-20.125,640,-27C706.6666666666666,-33.875,766.6666666666666,18.125,800,30" transform="matrix(1,0,0,1,0,72)"></path><path d="M10,10C41.25,14.583333333333332,95.41666666666667,43.875,160,32C224.58333333333331,20.125,253.33333333333331,-53.458333333333336,320,-47C386.6666666666667,-40.541666666666664,413.3333333333333,58.833333333333336,480,63C546.6666666666666,67.16666666666667,573.3333333333334,-20.125,640,-27C706.6666666666666,-33.875,766.6666666666666,18.125,800,30" transform="matrix(1,0,0,1,0,54)"></path><path d="M10,10C41.25,14.583333333333332,95.41666666666667,43.875,160,32C224.58333333333331,20.125,253.33333333333331,-53.458333333333336,320,-47C386.6666666666667,-40.541666666666664,413.3333333333333,58.833333333333336,480,63C546.6666666666666,67.16666666666667,573.3333333333334,-20.125,640,-27C706.6666666666666,-33.875,766.6666666666666,18.125,800,30" transform="matrix(1,0,0,1,0,36)"></path><path d="M10,10C41.25,14.583333333333332,95.41666666666667,43.875,160,32C224.58333333333331,20.125,253.33333333333331,-53.458333333333336,320,-47C386.6666666666667,-40.541666666666664,413.3333333333333,58.833333333333336,480,63C546.6666666666666,67.16666666666667,573.3333333333334,-20.125,640,-27C706.6666666666666,-33.875,766.6666666666666,18.125,800,30" transform="matrix(1,0,0,1,0,18)"></path></g></svg>